<?xml version="1.0" encoding="UTF-8" standalone="no"?>
<svg
   width="25"
   height="25"
   viewBox="0 0 25 25"
   fill="none"
   version="1.1"
   id="svg4"
   sodipodi:docname="fox_glove.svg"
   inkscape:version="1.4 (86a8ad7, 2024-10-11)"
   xmlns:inkscape="http://www.inkscape.org/namespaces/inkscape"
   xmlns:sodipodi="http://sodipodi.sourceforge.net/DTD/sodipodi-0.dtd"
   xmlns="http://www.w3.org/2000/svg"
   xmlns:svg="http://www.w3.org/2000/svg">
  <defs
     id="defs4">
    <linearGradient
       id="swatch6">
      <stop
         style="stop-color:#000000;stop-opacity:1;"
         offset="0"
         id="stop6" />
    </linearGradient>
  </defs>
  <sodipodi:namedview
     id="namedview4"
     pagecolor="#ffffff"
     bordercolor="#000000"
     borderopacity="0.25"
     inkscape:showpageshadow="2"
     inkscape:pageopacity="0.0"
     inkscape:pagecheckerboard="0"
     inkscape:deskcolor="#d1d1d1"
     inkscape:zoom="16"
     inkscape:cx="10.78125"
     inkscape:cy="11.78125"
     inkscape:window-width="1920"
     inkscape:window-height="1009"
     inkscape:window-x="1912"
     inkscape:window-y="-7"
     inkscape:window-maximized="1"
     inkscape:current-layer="g1" />
  <g
     id="g1"
     transform="scale(0.0625)">
    <rect
       width="367.08432"
       height="366.76996"
       rx="68.828316"
       fill="#6F3BE8"
       id="rect1"
       style="fill:none;fill-opacity:1;stroke:#fd7e14;stroke-width:31.84;stroke-linecap:butt;stroke-linejoin:round;stroke-dasharray:none;stroke-opacity:1"
       x="16.546213"
       y="16.70554" />
    <ellipse
       cx="143.854"
       cy="297.14301"
       rx="38.839001"
       ry="38.857101"
       fill="white"
       id="ellipse1"
       style="fill:#fd7e14;fill-opacity:1;stroke:none;stroke-opacity:1;stroke-width:16;stroke-dasharray:none" />
    <ellipse
       opacity="0.5"
       cx="255.89"
       cy="297.14301"
       rx="38.839001"
       ry="38.857101"
       fill="white"
       id="ellipse2"
       style="opacity:1;fill:#fd7e14;fill-opacity:1;stroke-width:16;stroke-dasharray:none;stroke:none;stroke-opacity:1" />
    <ellipse
       opacity="0.5"
       cx="311.16101"
       cy="200"
       rx="38.839001"
       ry="38.857101"
       fill="#ffffff"
       id="ellipse3"
       inkscape:highlight-color="#aaaaaa"
       style="opacity:1;fill:#fd7e14;fill-opacity:1" />
    <path
       fill-rule="evenodd"
       clip-rule="evenodd"
       d="m 143.899,64 c 9.106,0 17.485,3.1164 24.129,8.3414 8.646,7.0407 19.677,11.2616 31.694,11.2616 12.017,0 23.048,-4.2209 31.694,-11.2616 C 238.06,67.1164 246.438,64 255.545,64 c 21.581,0 39.076,17.5031 39.076,39.094 0,21.591 -17.495,39.095 -39.076,39.095 -9.107,0 -17.485,-3.117 -24.129,-8.342 -8.646,-7.041 -19.677,-11.261 -31.694,-11.261 -12.017,0 -23.048,4.22 -31.694,11.261 -6.644,5.225 -15.023,8.342 -24.129,8.342 -21.581,0 -39.076,-17.504 -39.076,-39.095 C 104.823,81.5031 122.318,64 143.899,64 Z"
       fill="white"
       id="path3"
       style="fill:#fd7e14;fill-opacity:1;stroke:none;stroke-opacity:1;stroke-width:16;stroke-dasharray:none" />
    <path
       fill-rule="evenodd"
       clip-rule="evenodd"
       d="m 88.0761,161.177 c 9.1064,0 17.4849,3.117 24.1289,8.342 8.646,7.04 19.677,11.261 31.694,11.261 12.017,0 23.048,-4.221 31.694,-11.261 6.644,-5.225 15.023,-8.342 24.129,-8.342 21.581,0 39.076,17.503 39.076,39.095 0,21.591 -17.495,39.094 -39.076,39.094 -9.106,0 -17.485,-3.117 -24.129,-8.342 -8.646,-7.04 -19.677,-11.261 -31.694,-11.261 -12.017,0 -23.048,4.221 -31.694,11.261 -6.644,5.225 -15.0225,8.342 -24.1289,8.342 C 66.495,239.366 49,221.863 49,200.272 49,178.68 66.495,161.177 88.0761,161.177 Z"
       fill="white"
       id="path4"
       style="fill:#fd7e14;fill-opacity:1;stroke-width:16;stroke-dasharray:none;stroke:none;stroke-opacity:1" />
  </g>
</svg>
